# xmcd CD database file
#
# Track frame offsets:
#	150
#	18587
#	36074
#	53425
#	68671
#	84717
#	100364
#	116452
#	132543
#	147708
#	161400
#	178440
#	205730
#	231734
#	247642
#	262553
#	284504
#	302666
#
# Disc length: 4232 seconds
#
# Revision: 1
# Processed by: cddbd v1.5.2PL0 Copyright (c) Steve Scherf et al.
# Submitted via: CDex 1.51
#
DISCID=00108612
DTITLE=Various Artist - POPCORN
DYEAR=1900
DGENRE=
TTITLE0=TRACK 1 - UNKNOWN ARTIST
TTITLE1=TRACK 2 - UNKNOWN ARTIST
TTITLE2=TRACK 3 - UNKNOWN ARTIST
TTITLE3=TRACK 4 - UNKNOWN ARTIST
TTITLE4=TRACK 5 - UNKNOWN ARTIST
TTITLE5=TRACK 6 - UNKNOWN ARTIST
TTITLE6=TRACK 7 - UNKNOWN ARTIST
TTITLE7=TRACK 8 - UNKNOWN ARTIST
TTITLE8=TRACK 9 - UNKNOWN ARTIST
TTITLE9=TRACK 10 - UNKNOWN ARTIST
TTITLE10=TRACK 11 - UNKNOWN ARTIST
TTITLE11=TRACK 12 - UNKNOWN ARTIST
TTITLE12=TRACK 13 - UNKNOWN ARTIST
TTITLE13=TRACK 14 - UNKNOWN ARTIST
TTITLE14=TRACK 15 - UNKNOWN ARTIST
TTITLE15=TRACK 16 - UNKNOWN ARTIST
TTITLE16=TRACK 17 - UNKNOWN ARTIST
TTITLE17=TRACK 18 - UNKNOWN ARTIST
EXTD=
EXTT0=
EXTT1=
EXTT2=
EXTT3=
EXTT4=
EXTT5=
EXTT6=
EXTT7=
EXTT8=
EXTT9=
EXTT10=
EXTT11=
EXTT12=
EXTT13=
EXTT14=
EXTT15=
EXTT16=
EXTT17=
PLAYORDER=
